<?xml version="1.0" encoding="UTF-8" standalone="no"?>
<svg
   version="1.1"
   id="Layer_1"
   x="0px"
   y="0px"
   width="349.47482"
   viewBox="0 0 349.47482 252.4884"
   enable-background="new 0 0 512 512"
   xml:space="preserve"
   sodipodi:docname="nestosoft_logo_black_icon.svg"
   inkscape:version="1.3.2 (091e20e, 2023-11-25, custom)"
   inkscape:export-filename="..\..\workspace\nestosoft\nestosoft_web\public\nestosoft_logo_black_2.svg"
   inkscape:export-xdpi="95.8125"
   inkscape:export-ydpi="95.8125"
   height="252.4884"
   xmlns:inkscape="http://www.inkscape.org/namespaces/inkscape"
   xmlns:sodipodi="http://sodipodi.sourceforge.net/DTD/sodipodi-0.dtd"
   xmlns="http://www.w3.org/2000/svg"
   xmlns:svg="http://www.w3.org/2000/svg"><defs
   id="defs83" /><sodipodi:namedview
   id="namedview83"
   pagecolor="#ffffff"
   bordercolor="#000000"
   borderopacity="0.25"
   inkscape:showpageshadow="2"
   inkscape:pageopacity="0.0"
   inkscape:pagecheckerboard="0"
   inkscape:deskcolor="#d1d1d1"
   inkscape:zoom="1.4258848"
   inkscape:cx="-23.143525"
   inkscape:cy="74.339806"
   inkscape:window-width="1920"
   inkscape:window-height="1058"
   inkscape:window-x="2553"
   inkscape:window-y="-6"
   inkscape:window-maximized="1"
   inkscape:current-layer="Layer_1" />

<path
   fill="#10AEE7"
   opacity="1"
   stroke="none"
   d="m 161.77433,243.78293 c 2e-5,0 -0.25365,-0.15866 -0.34387,-0.64517 -0.72792,-1.08527 -1.36563,-1.68402 -2.00334,-2.28275 0,0 0.0996,-0.009 -0.005,-0.20013 -0.37551,-0.40512 -0.64625,-0.61917 -0.91699,-0.83322 2e-5,0 0.0632,-0.006 -0.0531,-0.20099 -0.37728,-0.40189 -0.63823,-0.60852 -0.89919,-0.81516 2e-5,0 0.0234,0.003 -0.0829,-0.2012 -0.29087,-0.47705 -0.53214,-0.68363 -0.8301,-0.82395 0,0 -0.069,0.0253 -0.0629,-0.36422 -1.0421,-1.43674 -2.09027,-2.48392 -3.13843,-3.53113 0,0 0.0757,-0.0293 -0.024,-0.22803 -0.37125,-0.41025 -0.6428,-0.62176 -0.91434,-0.83328 0,0 0.0632,-0.002 0.0589,-0.33871 -2.75334,-4.72184 -0.69621,-8.06336 3.07871,-9.81888 4.09111,-1.90256 8.71388,-2.6619 13.10478,-3.9198 7.21851,-11.71469 14.34161,-23.49039 21.75647,-35.07944 1.13678,-1.77676 3.48401,-3.54257 5.50195,-3.86337 10.16068,-1.61527 20.3978,-2.7497 31.30551,-3.99521 1.20133,-0.0551 1.70514,-0.16803 2.20899,-0.28095 1.38406,-0.18725 2.76813,-0.37457 4.52966,-0.22924 -0.8613,1.78115 -2.1001,3.22961 -3.59714,4.38012 -2.45416,-0.75271 -4.70065,-1.75845 -6.83685,-1.56244 -7.38797,0.67813 -14.77405,1.55924 -22.08713,2.79828 -3.96432,0.67166 -8.2662,1.47733 -10.21313,5.84717 -1.2186,2.73505 -2.4231,5.52667 -3.11929,8.41687 -0.24302,1.0087 0.76968,3.12222 1.69513,3.48261 7.16925,2.79196 7.71545,3.40084 7.44491,11.96737 2.73486,-1.22375 5.42117,-1.69183 6.99457,-3.26968 4.43146,-4.444 8.29022,-9.45395 12.62323,-14.00409 1.47555,-1.5495 3.69086,-2.39447 5.46716,-3.31452 -0.36221,0.71009 -0.62344,1.17331 -0.8847,1.63657 -15.04001,17.3013 -30.08005,34.6026 -45.72248,52.14749 -1.11154,0.90528 -1.62066,1.56699 -2.12979,2.2287 0,0 -0.0263,-0.13745 -0.21582,-0.027 -0.37564,0.42807 -0.5617,0.7457 -0.74777,1.06336 0,0 -0.003,-0.16733 -0.21039,-0.0388 -0.457,0.67191 -0.70648,1.21521 -0.95593,1.75848 -3e-5,0 0.0153,0.004 -0.37909,-0.008 -2.17386,-0.31363 -3.95334,-0.61474 -5.73282,-0.91583 0,0 0.0773,-0.0287 -0.0273,-0.22687 -0.38239,-0.40591 -0.66025,-0.61364 -0.93811,-0.82141 0,0 0.0752,-0.002 -0.0363,-0.19562 -0.37425,-0.4056 -0.63704,-0.61727 -0.89983,-0.82897 0,0 0.0392,-0.002 -0.006,-0.28461 -0.61551,-0.76999 -1.1856,-1.25705 -1.75568,-1.74411 z"
   id="path2"
   style="fill:#01090c;fill-opacity:1"
   inkscape:export-filename="..\..\workspace\nestosoft\nestosoft_web\public\nestosoft_logo_black_2.svg"
   inkscape:export-xdpi="95.8125"
   inkscape:export-ydpi="95.8125" />
<path
   fill="#f8fbfc"
   opacity="1"
   stroke="none"
   d="m 122.79618,71.10591 c 0.95026,-2.04997 1.65175,-4.26547 2.88882,-6.1246 14.003,-21.04412 28.06388,-42.04998 42.21329,-62.99578 0.8167,-1.209 2.53237,-1.81072 3.7722,-1.98553 -0.24417,2.68318 -0.58212,4.65597 -0.59326,6.63061 -0.0795,14.08245 -0.0923,28.16527 -0.12637,42.24797 -14.50757,9.43055 -29.01515,18.86107 -43.90846,28.04741 -1.67255,-2.10283 -2.95939,-3.96145 -4.24622,-5.82008 z"
   id="path3" />
<path
   fill="#12B3EE"
   opacity="1"
   stroke="none"
   d="m 171.25594,49.01764 c -0.27105,-14.22176 -0.25824,-28.30458 -0.17871,-42.38703 0.0111,-1.97464 0.34909,-3.94743 0.70087,-6.32939 3.1102,3.57115 6.23532,7.43112 8.96948,11.55057 12.39945,18.68161 24.68863,37.43642 37.27582,56.46111 0.25833,0.29621 0.24316,0.36445 0.0413,0.71246 -2.57974,2.31581 -4.95755,4.2836 -7.33536,6.2514 -13.05609,-8.70669 -26.11218,-17.41339 -39.47336,-26.25912 z"
   id="path4"
   style="fill:#010b0f;fill-opacity:1" />
<path
   fill="#f8fbfc"
   opacity="1"
   stroke="none"
   d="m 34.853776,123.18108 c 0.003,-9.2918 0.003,-18.11174 0.003,-27.25473 3.24149,0 6.30529,0 9.74441,0 0,16.6797 0,33.42361 0,50.35251 -5.35231,1.36874 -9.27047,0.47143 -12.80613,-4.8108 -6.51136,-9.72796 -14.005809,-18.79788 -21.864406,-29.16262 0,12.12976 0,23.01751 0,34.20263 -3.555465,0 -6.641677,0 -9.93103,0 0,-16.98141 0,-33.74257 0,-50.51422 5.993553,-1.67164 9.92099,0.1037 13.426315,5.26462 6.387551,9.40447 13.564201,18.27298 21.142431,28.33548 0.13246,-2.79422 0.20706,-4.36765 0.28503,-6.41287 z"
   id="path5" />
<path
   fill="#f3f3f8"
   opacity="1"
   stroke="none"
   d="m 73.652926,107.2572 c 12.96129,1.33824 19.75232,10.35823 17.93796,23.91622 -9.45629,0 -18.99923,0 -28.66604,0 1.92386,7.25015 9.72722,10.97857 16.21608,7.30023 4.70633,-2.66791 7.51535,-2.05777 9.98757,2.3819 -5.7475,7.01181 -16.23769,9.02212 -25.13106,4.73559 -8.61014,-4.14996 -12.88576,-12.82706 -10.87526,-22.41281 1.68746,-8.04553 9.75229,-16.91089 20.53075,-15.92113 m 6.36863,10.74367 c -3.25743,-3.36291 -7.21246,-3.95866 -11.36624,-2.33421 -3.66296,1.43251 -5.55665,4.3795 -5.68452,8.59776 6.41563,0 12.64839,0 19.56254,0 -0.73103,-2.09866 -1.35286,-3.88385 -2.51178,-6.26355 z"
   id="path6" />
<path
   fill="#f6f6fa"
   opacity="1"
   stroke="none"
   d="m 177.87981,146.52516 c -8.45843,-3.4393 -13.34637,-9.25497 -13.76712,-18.16525 -0.3679,-7.79117 3.16734,-13.81216 9.5443,-18.05235 7.82411,-5.20247 18.98503,-4.09194 25.82426,2.31649 6.68378,6.26281 8.31833,16.29186 3.93942,24.17095 -5.05902,9.10272 -14.16159,12.6586 -25.54086,9.73016 m 7.41913,-31.1443 c -1.3046,0.19824 -2.68646,0.18607 -3.90024,0.63168 -4.85431,1.78215 -7.85281,6.87255 -7.42528,12.33559 0.43393,5.54456 4.07857,9.7449 9.40728,10.84171 4.33282,0.89181 9.13861,-1.71903 11.43768,-6.21381 3.72382,-7.28015 -0.28339,-15.34964 -9.51944,-17.59517 z"
   id="path7" />
<path
   fill="#f6f6fa"
   opacity="1"
   stroke="none"
   d="m 273.07634,107.36136 c 10.74567,2.61652 16.46665,8.93195 17.12519,18.5085 0.62036,9.0213 -4.31317,17.1514 -12.34574,20.34485 -8.76693,3.48541 -18.31442,1.15414 -24.39471,-6.24085 -4.98663,-6.06488 -5.76798,-13.0029 -2.92996,-20.18905 2.86633,-7.25792 8.40237,-11.41477 16.16406,-12.40238 1.9657,-0.25012 3.98819,-0.0538 6.38116,-0.0211 m -2.88311,31.93861 c 0.80197,-0.1958 1.62997,-0.3197 2.40185,-0.59878 6.4072,-2.31674 9.45212,-8.16071 7.65921,-14.64398 -1.66998,-6.03879 -7.06625,-9.61869 -12.73205,-8.44651 -6.0243,1.24634 -9.74244,7.28772 -8.72355,14.17435 0.73584,4.9733 4.452,8.31555 11.39454,9.51492 z"
   id="path8" />
<path
   fill="#f3f3f8"
   opacity="1"
   stroke="none"
   d="m 117.86826,107.49962 c 3.66211,1.09659 6.91948,2.14004 10.74943,3.36691 -1.33006,2.87519 -2.34008,5.05858 -3.26724,7.06281 -4.28062,-0.99967 -8.20973,-2.40259 -12.20944,-2.64615 -1.99425,-0.12142 -4.11769,1.879 -6.18269,2.91962 1.66304,1.52285 3.09465,3.55652 5.04692,4.44101 2.51802,1.14086 5.49362,1.22134 8.19978,2.00756 6.3997,1.85932 9.7079,5.78427 9.61202,11.13508 -0.0891,4.97082 -4.04432,9.89813 -9.88524,11.14114 -8.20069,1.74518 -16.12668,1.04636 -23.397394,-4.74295 1.27216,-2.36429 2.41147,-4.48169 3.550774,-6.59906 0.0556,0.51077 0.11128,1.02157 0.16693,1.53238 5.25323,0.84829 10.48669,1.966 15.77371,2.35421 1.3105,0.0962 2.79462,-2.17199 4.19893,-3.35333 -1.2036,-1.17743 -2.21046,-2.85818 -3.65378,-3.4223 -2.60359,-1.01761 -5.48567,-1.30014 -8.22064,-2.00858 -7.42432,-1.92303 -10.777624,-5.83419 -10.330834,-11.93411 0.43992,-6.00629 5.123484,-10.55177 11.971704,-11.3165 2.45976,-0.27469 4.9798,-0.01 7.87706,0.0623 z"
   id="path9" />
<path
   fill="#f3f3f8"
   opacity="1"
   stroke="none"
   d="m 239.60906,109.65697 c 5.2077,3.68573 -0.76428,5.49797 -0.52063,8.04303 -4.14023,-0.99164 -7.92902,-2.48694 -11.75192,-2.58003 -2.07859,-0.0506 -4.21524,2.28187 -6.32569,3.53947 1.66251,1.32761 3.13745,3.13144 5.02936,3.87646 3.21948,1.26777 6.72568,1.78629 10.06696,2.7707 4.87512,1.43631 7.44299,4.83307 7.6896,9.86331 0.26084,5.32013 -2.47177,9.12481 -7.19083,10.85016 -8.97897,3.28286 -17.5718,1.7984 -26.03137,-3.45932 1.16642,-2.34815 2.24015,-4.50974 3.01197,-6.06351 5.38998,1.17892 10.25528,2.61316 15.21597,3.12723 1.73352,0.17965 3.70199,-1.90787 5.5632,-2.96003 -1.49628,-1.44345 -2.75531,-3.46533 -4.54294,-4.19851 -2.87607,-1.17966 -6.15954,-1.31784 -9.1662,-2.23801 -5.58096,-1.70801 -8.40338,-5.32519 -8.466,-10.36902 -0.064,-5.15613 2.91608,-9.56413 8.08685,-11.40808 6.42563,-2.29144 12.76401,-1.30296 19.33167,1.20615 z"
   id="path10" />
<path
   fill="#f3f3f8"
   opacity="1"
   stroke="none"
   d="m 311.54622,116.6368 c -0.86267,1.4508 -1.54568,2.89297 -1.56387,4.34347 -0.10422,8.32202 -0.0507,16.64603 -0.0507,25.36173 -3.10904,0 -5.99313,0 -9.40848,0 0,-9.58454 0,-19.32267 0,-29.41767 -1.99426,-0.24823 -3.52939,-0.43933 -5.30768,-0.66067 0,-2.4583 0,-4.72777 0,-7.25049 1.44645,-0.211 2.86588,-0.41805 4.50968,-0.65784 0.6604,-6.66385 1.42114,-13.88177 9.3016,-15.80749 4.20227,-1.02692 8.94178,0.1446 14.5708,0.369 -1.35888,3.49373 -2.11212,5.43024 -2.84356,7.31081 -10.03061,-0.61531 -10.77582,-0.0806 -10.4975,7.93373 3.02225,0.13223 6.10126,0.26697 9.48514,0.41502 0,2.42456 0,4.85375 0,8.0556 -2.51669,0 -5.1127,0 -8.19544,0.005 z"
   id="path11" />
<path
   fill="#f3f3f8"
   opacity="1"
   stroke="none"
   d="m 337.79195,128.33138 c -0.009,1.14447 -0.0208,1.81039 -0.0185,2.47625 0.0295,8.28559 2.07986,9.82868 10.16076,7.26511 0.52567,2.3942 1.04432,4.75619 1.54059,7.01645 -10.69845,6.41028 -21.02231,1.04065 -21.33075,-10.85053 -0.14651,-5.64874 -0.0252,-11.30441 -0.0252,-17.33645 -1.65033,-0.23865 -3.21344,-0.46469 -5.1941,-0.75112 0,-2.29399 0,-4.66533 0,-7.34211 1.62195,-0.17923 3.19571,-0.35314 5.2454,-0.57962 0,-3.19429 0,-6.28122 0,-9.58274 3.40335,0 6.31176,0 9.58181,0 0,3.10172 0,6.04105 0,9.56931 3.39829,0 6.45514,0 9.81134,0 0,2.9731 0,5.36062 0,8.0794 -3.11068,0 -6.04824,0 -9.76739,0 0,4.05775 0,7.80762 -0.004,12.03605 z"
   id="path12" />
<path
   fill="#f3f3f8"
   opacity="1"
   stroke="none"
   d="m 139.01751,120.63823 c -0.002,-1.46109 -0.002,-2.44852 -0.002,-3.7941 -1.70822,-0.20187 -3.26332,-0.38568 -5.12497,-0.6057 0,-2.50808 0,-4.9293 0,-7.50392 1.60014,-0.14193 3.06224,-0.27163 4.91337,-0.43583 0,-3.05056 0,-6.13762 0,-9.56522 3.41657,0 6.45031,0 9.87236,0 0,3.08579 0,6.02263 0,9.48669 3.41927,0 6.48369,0 9.79456,0 0,2.92373 0,5.31965 0,8.0951 -3.17876,0 -6.09729,0 -9.61363,0 0,6.59852 -0.32265,12.86256 0.12065,19.07191 0.26715,3.74222 3.66426,4.58795 9.65826,3.02909 3.09037,7.23553 1.88832,9.10739 -5.89061,9.17321 -8.57809,0.0726 -13.40341,-4.44107 -13.68637,-12.99948 -0.14837,-4.48825 -0.0353,-8.98514 -0.0419,-13.95175 z"
   id="path13" />
<path
   fill="#7AAAE1"
   opacity="1"
   stroke="none"
   d="m 141.5001,219.89505 c -4.2612,-4.79138 -8.52239,-9.58276 -12.62817,-14.9758 0.70452,-5.05359 1.82463,-8.94955 5.28857,-12.46637 3.48285,-3.53601 5.69711,-8.32153 8.46729,-12.55951 0.43241,-0.0217 0.86483,-0.0433 1.75216,0.19583 0.67133,0.4679 0.91695,0.63098 1.19179,0.75009 3.60428,6.10306 7.20854,12.20615 10.61653,18.6764 -1.83967,1.62353 -3.73904,2.6571 -5.06933,4.18588 -2.262,2.59939 -4.38215,5.38071 -6.15273,8.33111 -1.46225,2.43662 -2.33318,5.22812 -3.46611,7.86237 z"
   id="path14"
   style="fill:#060f1a;fill-opacity:1" />
<path
   fill="#10AEE7"
   opacity="1"
   stroke="none"
   d="m 247.25303,170.43347 c 10.14502,-5.7749 20.29007,-11.5498 30.43509,-17.32471 0.4342,0.34723 0.86841,0.69443 1.30258,1.04166 -1.68259,5.09393 -3.95511,10.07941 -4.91565,15.30606 -1.62097,8.82044 -6.95074,12.37598 -15.96469,12.68442 -0.965,0.1871 -1.2627,0.37424 -1.56039,0.56137 0,0 -0.45786,0.12885 -1.1099,0.0881 -2.32422,-0.69993 -4.97909,-0.9358 -5.48041,-2.09943 -1.38369,-3.2117 -1.86718,-6.81131 -2.70663,-10.25751 z"
   id="path15"
   style="fill:#000000;fill-opacity:1" />
<path
   fill="#EE89C2"
   opacity="1"
   stroke="none"
   d="m 86.456806,183.98718 c -5.44162,-1.35986 -10.89506,-2.67538 -16.31445,-4.11874 -1.02938,-0.27417 -2.51364,-0.84766 -2.78966,-1.63364 -2.8773,-8.19314 -5.55054,-16.45794 -8.28033,-24.70288 0.35292,-0.26895 0.70584,-0.5379 1.05876,-0.80688 10.05694,5.83944 20.11387,11.67886 30.04902,17.85202 -1.36728,1.61413 -2.77392,2.77557 -3.82492,4.19952 -2.23613,3.02963 -4.00439,6.19153 0.10158,9.2106 z"
   id="path16"
   style="fill:#010101;fill-opacity:1" />
<path
   fill="#2FA9E3"
   opacity="1"
   stroke="none"
   d="m 141.51992,219.86963 c 1.11311,-2.60883 1.98404,-5.40033 3.44629,-7.83695 1.77058,-2.9504 3.89073,-5.73172 6.15273,-8.33111 1.33029,-1.52878 3.22966,-2.56235 5.23638,-3.87442 4.28827,6.05267 8.21323,12.16116 12.26267,18.59439 -4.26642,1.58267 -8.88919,2.34201 -12.9803,4.24457 -3.77492,1.75552 -5.83205,5.09704 -3.0914,9.84787 -3.28513,-3.39798 -6.56189,-7.16181 -10.06514,-11.47129 -0.48601,-0.76596 -0.74553,-0.98626 -1.00504,-1.20657 0,0 0.0636,0.008 0.0438,0.0335 z"
   id="path17"
   style="fill:#010709;fill-opacity:1" />
<path
   fill="#f3f3f8"
   opacity="1"
   stroke="none"
   d="m 101.59511,79.05289 c -9.686234,6.18887 -19.372484,12.37774 -29.058744,18.56662 -0.34918,-0.41248 -0.69837,-0.82496 -1.04756,-1.23743 11.50084,-13.35428 23.00168,-26.70856 34.965924,-39.78958 -1.31092,7.66897 -3.08526,15.06466 -4.85962,22.46039 z"
   id="path18" />
<path
   fill="#E25395"
   opacity="1"
   stroke="none"
   d="m 86.463476,183.93704 c -4.11264,-2.96893 -2.34438,-6.13083 -0.10825,-9.16046 1.051,-1.42395 2.45764,-2.58539 4.04714,-3.93384 3.79713,1.57654 7.25026,3.22113 11.400254,4.9383 5.32413,5.29736 9.95137,10.52209 14.57861,15.74682 -9.41102,-2.20578 -18.822064,-4.41156 -28.716064,-6.93036 -0.72664,-0.50448 -0.99654,-0.6459 -1.29269,-0.73724 0,0 0.0977,0.0266 0.091,0.0768 z"
   id="path19"
   style="fill:#111111;fill-opacity:1" />
<path
   fill="#A3AADE"
   opacity="1"
   stroke="none"
   d="m 142.22956,179.78595 c -2.37195,4.3454 -4.58621,9.13092 -8.06906,12.66693 -3.46394,3.51682 -4.58405,7.41278 -5.40268,12.15036 -3.9012,-3.78174 -7.53288,-7.84915 -10.92194,-12.29361 6.40082,-2.09369 6.68551,-8.21121 10.25858,-12.36316 -2.69197,-1.2467 -4.5746,-2.11859 -6.45724,-2.99048 6.73136,0.9075 13.46275,1.81501 20.59234,2.82996 z"
   id="path20"
   style="fill:#03040a;fill-opacity:1" />
<path
   fill="#0D7DBB"
   opacity="1"
   stroke="none"
   d="m 246.90229,170.49487 c 1.19019,3.3848 1.67368,6.98441 3.05737,10.19611 0.50132,1.16363 3.15619,1.3995 5.24302,2.1134 -10.66327,3.02619 -21.74119,5.99765 -33.24497,8.92056 -0.16464,-0.51184 0.0966,-0.97506 0.75037,-1.85226 2.92773,-3.5748 5.46289,-6.73566 7.99807,-9.89651 1.2388,-1.44846 2.4776,-2.89692 3.75992,-4.663 4.05753,-1.79736 8.07147,-3.27713 12.43622,-4.8183 z"
   id="path21"
   style="fill:#010507;fill-opacity:1" />
<path
   fill="#D79DD6"
   opacity="1"
   stroke="none"
   d="m 121.23072,176.85693 c 2.28914,0.97095 4.17177,1.84284 6.86374,3.08954 -3.57307,4.15195 -3.85776,10.26947 -10.39243,12.05658 -0.55197,0.0126 -0.7275,-0.0452 -1.1119,-0.28912 -4.83614,-5.4108 -9.46338,-10.63553 -14.40552,-15.97254 4.02449,-0.006 8.36703,0.0337 12.70187,0.23731 1.98706,0.0933 3.95896,0.50943 6.34424,0.87823 z"
   id="path22"
   style="fill:#1f141e;fill-opacity:1" />
<path
   fill="#09B5F2"
   opacity="1"
   stroke="none"
   d="m 255.13552,90.19595 c -4.30313,-2.68938 -8.60626,-5.37877 -13.26337,-8.61743 -5.09961,-5.37392 -5.58728,-11.2254 -4.85772,-17.88277 1.92447,1.32846 3.37143,2.32732 4.81839,3.32616 5.22567,6.12262 10.45135,12.24522 15.81924,18.99951 0.47614,1.6601 0.81003,2.68852 1.22723,3.97347 -1.46557,0.0787 -2.60467,0.13989 -3.74377,0.20106 z"
   id="path23"
   style="fill:#010b0f;fill-opacity:1" />
<path
   fill="#D79DD6"
   opacity="1"
   stroke="none"
   d="m 218.26656,68.67735 c 0,0 0.0152,-0.0682 -0.01,-0.0525 1.15381,-1.5055 2.18783,-3.17182 3.53982,-4.51912 3.31955,-3.30811 6.78556,-6.46926 10.20932,-9.70525 0.62213,0.82471 1.0998,1.45792 1.55475,2.67514 0.12476,3.02135 0.37342,5.45775 0.39667,7.89627 0.0379,3.97366 -0.0714,7.94872 -0.11856,11.92319 -4.83573,-2.6886 -9.67142,-5.37718 -14.93637,-8.09406 -0.4292,-0.0283 -0.63593,-0.12364 -0.63593,-0.12364 z"
   id="path24"
   style="fill:#0f060f;fill-opacity:1" />

<path
   fill="#2FA9E3"
   opacity="1"
   stroke="none"
   d="m 101.96145,79.02222 c 1.40802,-7.36506 3.18236,-14.76075 4.80455,-22.56192 -0.15215,-0.40546 -0.10759,-0.32685 0.0967,-0.37458 0.3676,-0.34242 0.5309,-0.63713 0.6942,-0.93182 1.40197,1.06213 2.80397,2.12428 3.9129,3.45676 -0.93263,0.22996 -1.81537,-0.10146 -2.17226,0.19665 -2.25166,1.88075 -4.62794,13.12071 -3.19127,16.73535 3.95092,-2.24287 7.79998,-4.4279 11.67681,-6.62872 -2.33914,-3.89829 -4.16522,-6.94151 -5.99129,-9.98474 3.29912,2.75747 6.59824,5.51495 10.90498,9.11462 -7.98524,4.29186 -14.17712,7.6198 -20.73533,10.9784 z"
   id="path26"
   style="fill:#02080c;fill-opacity:1" />
<path
   fill="#2FA9E3"
   opacity="1"
   stroke="none"
   d="m 234.05077,77.06311 c -0.16473,-4.14253 -0.0555,-8.11759 -0.0934,-12.09125 -0.0232,-2.43852 -0.27191,-4.87492 -0.24069,-7.615 2.75763,2.80181 5.33664,5.90637 8.01584,9.33799 -1.34671,-0.67178 -2.79367,-1.67064 -4.71814,-2.9991 -0.72956,6.65737 -0.24189,12.50885 4.56564,17.64464 -2.39789,-1.16232 -4.85764,-2.63579 -7.5293,-4.27728 z"
   id="path27"
   style="fill:#030f15;fill-opacity:1" />




<path
   fill="#766398"
   opacity="1"
   stroke="none"
   d="m 218.06466,69.02536 c 0.2019,-0.34801 0.40863,-0.25266 0.45618,-0.15192 0.85403,3.24712 1.66058,6.39351 2.23706,9.9792 -0.23002,0.43932 -0.50269,0.69021 -0.50269,0.69021 -3.04691,-1.24241 -6.09384,-2.48481 -9.33331,-3.99665 2.18521,-2.23724 4.56302,-4.20503 7.14276,-6.52084 z"
   id="path32"
   style="fill:#0c0a10;fill-opacity:1" />
<path
   fill="#D79DD6"
   opacity="1"
   stroke="none"
   d="m 122.61343,71.40872 c 1.46958,1.55582 2.75642,3.41444 4.09835,5.63965 -2.11419,1.81636 -4.26403,3.29692 -6.46748,4.69287 -0.50883,0.32236 -1.20114,0.35518 -2.56642,0.72818 1.74835,-3.95737 3.25056,-7.35764 4.93555,-11.0607 z"
   id="path33"
   style="fill:#0d050d;fill-opacity:1" />








<path
   fill="#2FA9E3"
   opacity="1"
   stroke="none"
   d="m 255.30733,90.45053 c 0.96729,-0.31575 2.10639,-0.37694 3.57196,-0.45564 -0.4172,-1.28495 -0.75109,-2.31337 -1.09106,-3.67003 2.38306,2.42647 4.77222,5.18117 7.16135,7.93585 -0.40134,0.50348 -0.80268,1.00694 -1.20401,1.51041 -2.75547,-1.68868 -5.51093,-3.37735 -8.43824,-5.32059 z"
   id="path42"
   style="fill:#010507;fill-opacity:1" />






<path
   fill="#2FA9E3"
   opacity="1"
   stroke="none"
   d="m 165.5228,248.19684 c 1.6944,-0.0112 3.47388,0.28988 5.64444,0.59582 -0.41479,0.9552 -1.22067,1.90558 -2.73869,3.69574 -1.12433,-1.58612 -1.97249,-2.78265 -2.90575,-4.29156 z"
   id="path49"
   style="fill:#000000;fill-opacity:1" />









<path
   fill="#0d7dbb"
   opacity="1"
   stroke="none"
   d="m 229.26991,175.40387 c -0.25837,0.23639 -0.76218,0.34927 -1.52277,0.40057 0.25464,-0.2157 0.76596,-0.36987 1.52277,-0.40057 z"
   id="path59" />

<path
   fill="#0d7dbb"
   opacity="1"
   stroke="none"
   d="m 256.81348,182.73633 c 0.0342,-0.22119 0.33188,-0.40833 0.89679,-0.53906 -0.0329,0.2286 -0.3331,0.40087 -0.89679,0.53906 z"
   id="path61" />










<path
   fill="#f3f3f8"
   opacity="1"
   stroke="none"
   d="m 107.31249,55.23129 c 0.0811,0.2173 -0.0822,0.51201 -0.49087,0.87325 -0.0814,-0.22092 0.0825,-0.50838 0.49087,-0.87325 z"
   id="path72" />


<path
   fill="#7aaae1"
   opacity="1"
   stroke="none"
   d="m 141.56724,220.08295 c 0.16838,-0.0265 0.4279,0.19378 0.79617,0.64611 -0.16254,0.0216 -0.43379,-0.18884 -0.79617,-0.64611 z"
   id="path75" />

<path
   fill="#09B5F2"
   opacity="1"
   stroke="none"
   d="m 230.44791,179.67822 c -2.27694,3.4588 -4.8121,6.61966 -7.63885,9.94763 -2.16885,1.33399 -4.38416,2.17896 -5.85971,3.72846 -4.33301,4.55014 -8.19177,9.56009 -12.62323,14.00409 -1.5734,1.57785 -4.25971,2.04593 -6.99457,3.26968 0.27054,-8.56653 -0.27566,-9.17541 -7.44491,-11.96737 -0.92545,-0.36039 -1.93815,-2.47391 -1.69513,-3.48261 0.69619,-2.8902 1.90069,-5.68182 3.11929,-8.41687 1.94693,-4.36984 6.24881,-5.17551 10.21313,-5.84717 7.31308,-1.23904 14.69916,-2.12015 22.08713,-2.79828 2.1362,-0.19601 4.38269,0.80973 6.83685,1.56244 z"
   id="path77"
   style="fill:#000203;fill-opacity:1" />



<path
   fill="#10AEE7"
   opacity="1"
   stroke="none"
   d="m 111.74915,58.98022 c 1.86872,2.99221 3.6948,6.03543 6.03394,9.93372 -3.87683,2.20082 -7.72589,4.38585 -11.67681,6.62872 -1.43667,-3.61464 0.93961,-14.8546 3.19127,-16.73535 0.35689,-0.29811 1.23963,0.0333 2.20922,0.13568 0.32997,0.062 0.19973,0.0882 0.24238,0.0372 z"
   id="path81"
   style="fill:#010d11;fill-opacity:1" />


<path
   style="fill:#000000;stroke-width:0.847682"
   d="m 0.455376,121.30009 0.224535,-25.21854 3.593771,0.0725 c 2.264385,0.0457 4.261696,0.67282 5.399392,1.69536 0.99309,0.89257 6.70814,8.1738 12.700112,16.18052 5.99197,8.00671 11.28675,14.80008 11.76617,15.09638 0.58577,0.36203 0.87168,-4.89944 0.87168,-16.0411 V 96.50538 h 4.67506 4.67505 l -0.22472,24.7947 -0.22473,24.7947 -2.81496,0.27011 c -1.54823,0.14855 -3.7065,-0.31406 -4.79617,-1.02804 -1.08966,-0.71397 -7.26134,-8.36352 -13.71484,-16.999 -6.453495,-8.63548 -12.019723,-15.70664 -12.369392,-15.71369 -0.349669,-0.007 -0.635761,7.61632 -0.635761,16.94082 v 16.95365 H 4.905707 0.230841 Z"
   id="path84" /><path
   style="fill:#000000;stroke-width:0.847682"
   d="m 66.126866,146.06681 c -12.89774,-4.73363 -17.07866,-19.21845 -8.85324,-30.67214 3.02652,-4.21435 9.62206,-7.86941 14.20032,-7.86941 9.73773,0 17.64732,5.98665 19.46263,14.73098 1.68758,8.129 2.42937,7.69974 -13.76417,7.96501 -8.97738,0.14706 -14.18786,0.55166 -14.18786,1.1017 0,0.4781 0.57864,1.98825 1.28587,3.35588 2.50771,4.84938 9.96782,6.73438 15.44424,3.90242 3.57862,-1.85058 5.5679,-1.74806 7.49963,0.38648 1.58704,1.75365 1.57472,1.80074 -1.09496,4.18609 -4.61376,4.1224 -13.26329,5.38267 -19.99246,2.91299 z m 16.35437,-22.46282 c 0,-0.4812 -0.54214,-2.17242 -1.20475,-3.75827 -1.30707,-3.12826 -5.0255,-5.53901 -8.5436,-5.53901 -4.71009,0 -9.74834,4.25952 -9.74834,8.2416 0,1.89708 0.1692,1.93059 9.74834,1.93059 6.13602,0 9.74835,-0.3242 9.74835,-0.87491 z"
   id="path85" /><path
   style="fill:#000000;stroke-width:0.847682"
   d=""
   id="path86" /><path
   style="fill:#000000;stroke-width:0.847682"
   d="m 147.44976,146.49473 c -2.71454,-0.81348 -5.31263,-2.9236 -6.743,-5.47654 -0.52536,-0.93767 -1.15757,-6.85452 -1.40493,-13.14856 l -0.44973,-11.44371 -2.33113,-0.26823 c -2.09342,-0.24087 -2.33112,-0.60136 -2.33112,-3.53529 0,-2.94084 0.25394,-3.32285 2.54304,-3.82562 2.44415,-0.53682 2.54305,-0.73724 2.54305,-5.15344 v -4.5949 h 4.66225 4.66225 v 4.66225 4.66225 h 4.66226 4.66225 v 3.81457 3.81457 h -4.66225 -4.66226 v 10.57648 c 0,10.29958 0.0546,10.61225 2.08476,11.94247 1.44492,0.94675 2.90832,1.1851 4.76814,0.77662 3.07091,-0.67449 4.13358,0.36495 4.15399,4.06316 0.01,1.75113 -0.54259,2.56333 -2.16141,3.17881 -2.57815,0.98021 -6.63624,0.96198 -9.99616,-0.0449 z"
   id="path87" /><path
   style="fill:#000000;stroke-width:0.847682"
   d="m 179.31671,146.58599 c -4.21388,-1.07496 -9.2476,-4.77181 -11.8481,-8.70143 -2.07745,-3.13923 -2.33836,-4.31259 -2.33836,-10.51577 0,-6.40471 0.21252,-7.28464 2.56926,-10.63787 9.41731,-13.39921 29.69162,-11.81509 35.98384,2.81157 3.85209,8.95441 0.56774,19.54224 -7.63512,24.61351 -4.16605,2.57559 -11.80932,3.68566 -16.73152,2.42999 z m 11.50521,-8.56486 c 2.80103,-1.70775 6.04142,-7.3163 6.07779,-10.51963 0.0663,-5.84268 -6.8012,-12.3471 -13.0364,-12.3471 -4.17594,0 -8.78304,4.20234 -9.8543,8.98854 -2.40589,10.74911 7.93913,19.28839 16.81291,13.87819 z"
   id="path88" /><path
   style="fill:#000000;stroke-width:0.847682"
   d="m 221.07727,146.75768 c -3.1689,-0.77004 -9.74835,-3.83554 -9.74835,-4.54196 0,-1.83716 2.11267,-5.01833 3.31487,-4.99139 0.74106,0.0166 3.63612,0.58283 6.43348,1.25828 6.79713,1.64123 9.17746,1.56531 11.56172,-0.36879 l 2.00119,-1.62335 -2.02207,-2.15611 c -1.30661,-1.39323 -3.70605,-2.51827 -6.78146,-3.17966 -2.61766,-0.56295 -6.10689,-1.68855 -7.75384,-2.50133 -6.4089,-3.16283 -7.38154,-11.91694 -1.89324,-17.03974 4.65199,-4.34218 14.08773,-5.26346 21.6304,-2.11193 3.42077,1.42929 3.99769,3.22717 1.91725,5.97479 -1.07544,1.42032 -1.62033,1.48946 -5.01066,0.63577 -5.89853,-1.48527 -9.45813,-1.20048 -11.96685,0.95743 l -2.22666,1.91529 2.5419,1.87931 c 1.39804,1.03362 5.19753,2.61522 8.44331,3.51467 7.86317,2.179 9.40475,3.10464 10.82282,6.49856 2.8079,6.72025 0.1218,12.57026 -6.87284,14.96825 -4.01494,1.37646 -10.72855,1.80188 -14.39097,0.91191 z"
   id="path89" /><path
   style="fill:#000000;stroke-width:0.847682"
   d="m 262.34415,146.13147 c -8.04633,-3.64702 -12.85384,-10.47749 -12.8533,-18.26184 8.3e-4,-11.83338 8.78274,-20.34437 20.99196,-20.34437 5.2498,0 13.43786,4.54011 16.28511,9.02976 5.96761,9.40994 2.90724,22.46242 -6.56876,28.01573 -4.67167,2.73777 -13.54656,3.51354 -17.85501,1.56072 z m 12.52187,-8.16956 c 4.15069,-2.33282 5.97357,-5.58392 5.96967,-10.64691 -0.006,-7.7528 -5.23578,-12.74604 -12.49313,-11.92804 -8.54372,0.963 -12.99405,11.44049 -8.12262,19.12324 1.31721,2.07739 7.21263,5.17661 9.90747,5.20836 0.86897,0.0102 3.00135,-0.78025 4.73861,-1.75665 z"
   id="path90" /><path
   style="fill:#000000;stroke-width:0.847682"
   d="m 301.18323,131.35105 c 0,-15.27564 -0.0206,-15.34897 -4.30774,-15.34897 -1.32318,0 -1.62604,-0.61181 -1.62604,-3.28477 0,-2.937 0.25706,-3.33618 2.42798,-3.77036 2.17517,-0.43504 2.48571,-0.92087 2.98253,-4.66608 1.20779,-9.10478 6.5105,-12.78802 16.54927,-11.49505 l 5.84389,0.75268 -1.27727,3.17881 c -1.22914,3.05904 -1.43172,3.17881 -5.37694,3.17881 -4.63093,0 -6.73886,1.9151 -6.73886,6.12239 0,2.1535 0.27129,2.35542 3.1788,2.366 5.94781,0.0217 6.99338,0.66839 6.99338,4.32571 v 3.29186 h -3.7665 c -5.92814,0 -6.40568,1.24635 -6.40568,16.71841 v 12.95046 h -4.23841 -4.23841 z"
   id="path91" /><path
   style="fill:#000000;stroke-width:0.847682"
   d="m 334.4959,145.70527 c -4.64905,-2.83469 -5.69217,-5.918 -6.17741,-18.25948 l -0.43328,-11.01987 -2.33112,-0.26823 c -2.09343,-0.24087 -2.33113,-0.60136 -2.33113,-3.53529 0,-2.94084 0.25394,-3.32285 2.54305,-3.82562 2.44414,-0.53682 2.54304,-0.73724 2.54304,-5.15344 v -4.5949 h 4.66226 4.66225 v 4.66225 4.66225 h 4.66225 4.66225 v 3.81457 3.81457 h -4.66225 -4.66225 v 10.17218 c 0,9.19371 0.17072,10.34291 1.7748,11.94699 1.41889,1.4189 2.37865,1.66152 4.78605,1.20989 3.38706,-0.63542 4.42499,0.28106 4.44603,3.92576 0.0102,1.76478 -0.56104,2.44831 -2.65656,3.17881 -4.01742,1.40048 -8.45601,1.11826 -11.48798,-0.73044 z"
   id="path92" /><path
   style="fill:#000000;stroke-width:0.847682"
   d=""
   id="path93" /><path
   style="fill:#000000;stroke-width:0.847682"
   d="m 104.38941,146.10726 c -1.70414,-0.62678 -4.07862,-1.78183 -5.276614,-2.56679 -2.09233,-1.37095 -2.12717,-1.52582 -0.88397,-3.9299 0.8771,-1.69613 1.75809,-2.36651 2.733574,-2.08011 0.79165,0.23243 4.58684,0.89009 8.43375,1.46148 6.86132,1.01911 7.03477,1.00093 9.11734,-0.95554 l 2.12295,-1.99441 -1.78586,-1.90096 c -1.1773,-1.25317 -3.98561,-2.39036 -8.24112,-3.33712 -8.40648,-1.87026 -12.023914,-5.08784 -12.019094,-10.69057 0.004,-4.94999 2.533354,-8.89226 7.007724,-10.92339 4.63129,-2.10236 9.62019,-2.085 16.81774,0.0585 l 5.78625,1.72322 -1.43131,3.15095 c -0.78722,1.73302 -1.46036,3.23227 -1.49586,3.33165 -0.0355,0.0994 -2.14484,-0.37291 -4.6874,-1.04954 -6.17494,-1.64329 -9.28529,-1.53819 -11.8063,0.39897 -2.05012,1.57531 -2.06211,1.65061 -0.53195,3.34141 1.56288,1.72697 5.21859,3.26293 12.32618,5.17891 5.61208,1.51283 8.52832,5.05169 8.52832,10.34913 0,3.65841 -0.37967,4.6132 -2.79475,7.02828 -1.53711,1.53711 -4.30267,3.21339 -6.14569,3.72507 -4.46511,1.23966 -11.94709,1.08822 -15.77391,-0.31927 z"
   id="path94" /><path
   style="fill:#000000;stroke-width:0.847682"
   d="m 72.339546,96.35793 c 0,-0.77789 30.671254,-36.07337 32.131434,-36.97581 1.31162,-0.81063 1.11889,1.22542 -1.03664,10.95135 l -1.87454,8.45805 -13.974364,9.06507 c -14.04774,9.11267 -15.24589,9.78077 -15.24589,8.50134 z"
   id="path95" /><path
   style="fill:#000000;stroke-width:0.847682"
   d="m 125.18484,74.16681 c -0.82621,-1.39868 -1.80917,-2.54305 -2.18435,-2.54305 -1.36576,0 2.99176,-6.95944 23.86591,-38.1165 18.44699,-27.53426 23.39067,-34.29998 24.07978,-32.95458 0.0816,0.1593 0.0418,11.17067 -0.0884,24.46972 l -0.23671,24.18008 -3.57786,2.19716 c -1.96782,1.20844 -11.68407,7.3976 -21.59167,13.75369 -9.90759,6.35609 -18.18271,11.55653 -18.38916,11.55653 -0.20644,0 -1.05135,-1.14437 -1.87757,-2.54305 z"
   id="path96" /><path
   style="fill:#000000;stroke-width:0.847682"
   d=""
   id="path97" /><path
   style="fill:#333333;stroke-width:0.0345898"
   d=""
   id="path102" /></svg>
